<svg xmlns="http://www.w3.org/2000/svg" xmlns:xlink="http://www.w3.org/1999/xlink" version="1.1" x="0px" y="0px" viewBox="0 0 100 125" enable-background="new 0 0 100 100" xml:space="preserve" fill="#141518"><g><path d="M62.2,87.2c-0.4,0-0.8-0.1-1.1-0.4c-0.5-0.4-0.9-1-0.9-1.6v-5.5c0-3.4-1.7-6.5-4.6-8.4c-0.7-0.5-1.1-1.3-0.9-2.1   c0.2-0.8,0.9-1.4,1.7-1.5c5.1-0.5,9-4.8,9-10v-3.3c0-2.6-1-5.1-2.8-6.9c-0.5-0.5-0.6-1.1-0.5-1.8s0.5-1.2,1.1-1.4   c1.2-0.5,1.9-1.7,1.9-3c0-1.8-1.5-3.3-3.3-3.3s-3.3,1.5-3.3,3.3c0,0.3,0,0.5,0.1,0.6c0.2,0.6,0,1.3-0.4,1.8   c-0.4,0.5-1.1,0.8-1.7,0.7c-0.4,0-0.8-0.1-1.2-0.1h-11c-0.4,0-0.8,0-1.2,0.1c-0.7,0.1-1.3-0.2-1.7-0.7c-0.4-0.5-0.6-1.2-0.4-1.8   c0-0.2,0.1-0.4,0.1-0.6c0-1.8-1.5-3.3-3.3-3.3s-3.3,1.5-3.3,3.3c0,1.3,0.8,2.4,1.9,3c0.6,0.3,1,0.8,1.1,1.4   c0.1,0.6-0.1,1.3-0.5,1.8c-1.8,1.9-2.8,4.3-2.8,6.9v3.3c0,5.2,3.9,9.4,9,10c0.8,0.1,1.5,0.7,1.7,1.5c0.2,0.8-0.1,1.7-0.9,2.1   c-2.9,1.9-4.6,5-4.6,8.4v5.5c0,0.7-0.3,1.3-0.9,1.6c-0.5,0.4-1.2,0.5-1.8,0.2C22.5,81.7,12.7,67.6,12.7,52   c0-20.6,16.7-37.3,37.3-37.3S87.3,31.4,87.3,52c0,15.6-9.8,29.7-24.5,35.1C62.6,87.1,62.4,87.2,62.2,87.2z M50,18.7   c-18.4,0-33.3,15-33.3,33.3c0,12.9,7.6,24.7,19.2,30.2v-2.5c0-3.4,1.2-6.6,3.3-9.1c-5.1-2.1-8.6-7.1-8.6-12.9v-3.3   c0-2.9,0.9-5.6,2.4-7.9c-1.4-1.3-2.2-3.2-2.2-5.2c0-4,3.3-7.3,7.3-7.3c3.7,0,6.7,2.8,7.2,6.3h9.6c0.5-3.6,3.5-6.3,7.2-6.3   c4,0,7.3,3.3,7.3,7.3c0,2-0.8,3.8-2.2,5.2c1.6,2.3,2.4,5,2.4,7.9v3.3c0,5.8-3.5,10.8-8.6,12.9c2.1,2.5,3.3,5.7,3.3,9.1v2.5   C75.7,76.7,83.3,64.9,83.3,52C83.3,33.6,68.4,18.7,50,18.7z"/></g></svg>